<svg xmlns="http://www.w3.org/2000/svg" viewBox="0 0 304.15 68.27"><defs><style>.cls-1,.cls-2{fill:#350016;}.cls-2{stroke:#350016;stroke-width:10px;}.cls-11,.cls-2,.cls-3,.cls-4,.cls-5,.cls-9{stroke-linecap:round;stroke-linejoin:round;}.cls-3{fill:#ba0047;stroke:#ba0047;stroke-width:5px;}.cls-4{fill:#fff;stroke:#ebebeb;}.cls-11,.cls-4,.cls-5,.cls-9{stroke-width:2px;}.cls-5{fill:#fde180;stroke:#ffd400;}.cls-6{fill:#e12727;}.cls-7{fill:#cc2322;}.cls-8{fill:#e55d42;}.cls-9{fill:#31a444;}.cls-11,.cls-9{stroke:#31a444;}.cls-10,.cls-11{fill:#37b34a;}</style></defs><title>logo_1</title><g id="Layer_2" data-name="Layer 2"><g id="Layer_1-2" data-name="Layer 1"><path class="cls-1" d="M232.71,50.46a1,1,0,0,1-.13-2,47.21,47.21,0,0,0,15.4-7.2c4.2-3.13,6.57-8.28,8.3-12.58,1.1-2.73,2.75-9,3.86-11.76,1.55-3.83,6.83-8.52,12.52-3.48,3.64,3.23,1.41,11,.11,14C269.12,36,262,45.67,252.6,48.36,243.87,50.83,237.23,51,232.71,50.46Z"/><path class="cls-1" d="M234,45.64l-.48-.18,2.21,1.29-.3-.34,1.29,2.21-.12-.44v2.66l-.18.37L234.65,53c1.42-.72,3.76-1.1,5.42-1.79A58.61,58.61,0,0,0,246.71,48a28.8,28.8,0,0,0,9.6-8.46,43.75,43.75,0,0,0,5.31-11c1.12-3.25,1.81-6.72,3.16-9.88-.22.5.54-1,.8-1.26a6.53,6.53,0,0,1,.94-.8c1-.64,1.81-.41,2.8.55.22.22,0-.35.18.44a5.64,5.64,0,0,1,.14,1.65,16,16,0,0,1-.81,4.39,35.72,35.72,0,0,1-11.69,16.87c-6.56,4.88-16.5,5.78-24.43,4.94-2.69-.28-5,2.5-5,5,0,2.94,2.3,4.72,5,5a52.33,52.33,0,0,0,14.25-.7c5.39-.91,10.73-2.39,15.23-5.61,7.81-5.59,14.39-14.84,16.67-24.24,1.15-4.72,1.39-10.25-1.92-14.19A12.16,12.16,0,0,0,261.48,8c-4.53,2.7-6.21,7.38-7.68,12.14-1.29,4.16-2.49,8.28-4.66,12.08-2.78,4.87-7.41,7.56-12.49,9.67-2.91,1.21-7,1.43-8.84,4.28-2.37,3.67-.21,7.75,3.57,9.13,2.54.92,5.48-1,6.15-3.49A5.1,5.1,0,0,0,234,45.64Z"/><path class="cls-1" d="M252.26,41.43a31.67,31.67,0,0,0,9-12.63c.58-1.43,1.25-3.65,2-6s1.32-4.48,1.89-5.76c1.44-3.27,2.68-3.76,2.68-3.76-2.85-.19-5.06,2.6-5.79,4.39-.52,1.3-1.22,3.57-1.89,5.76s-1.43,4.54-2,6A27.34,27.34,0,0,1,241,46.36,24,24,0,0,0,252.26,41.43Z"/><path class="cls-1" d="M255.79,45a36.9,36.9,0,0,0,10.53-15.41c1.07-2.83,1.81-5.77,2.73-8.64a17.91,17.91,0,0,1,1.51-3.44c-.28.51.14-.33.34-.34s-1.08.71-.57.48c4.62-2.13,2.19-9.4-2.52-9.32-12,.22-11.61,15.38-16.09,23.16A24,24,0,0,1,244.82,39a34.41,34.41,0,0,1-3.59,2c-.85.43.64-.23.11,0-.22.08-.44.18-.67.25s-.68.23-1,.32a5.08,5.08,0,0,0-3.49,6.15c.77,2.82,3.48,4,6.15,3.49A30.08,30.08,0,0,0,255.79,45c2.13-1.66,1.74-5.33,0-7.07-2.11-2.11-4.93-1.66-7.07,0a20.14,20.14,0,0,1-9.08,3.64l2.66,9.64a30.34,30.34,0,0,0,15-10.22,39.66,39.66,0,0,0,6.66-12.85c.79-2.42,1.48-4.87,2.29-7.28.21-.63.6-2.52,1.62-2.54L265.3,9c-4.78,2.21-6,9.8-7.4,14.23C256.11,29,253.4,34,248.72,37.89c-2.07,1.73-1.79,5.28,0,7.07C250.77,47,253.71,46.7,255.79,45Z"/><path class="cls-2" d="M271.35,16a3.25,3.25,0,0,0-1.23-1.67A2.83,2.83,0,0,1,269,12.85c.16,2-3.41,2.13-3.41,2.13a1.89,1.89,0,0,0,.38-1.53c-.12-1,.34-1.31.34-1.31l-1.4.1a3.21,3.21,0,0,1-2.27-.68,3.59,3.59,0,0,0,1.73-.25,10.22,10.22,0,0,1,4.79-1,6.29,6.29,0,0,1,5.24,4.6c-.26-.4-1.06-.41-1.79-.72a4.13,4.13,0,0,1-1-.82A3.37,3.37,0,0,1,271.35,16Z"/><path class="cls-2" d="M274.37,14.94a6.39,6.39,0,0,0-4.79-4.53h0a3.5,3.5,0,0,1,.93-3.1,4,4,0,0,1,1.75-1.17s.53-.75-.65-1.13c-3.46,1.34-2.93,5.31-2.93,5.31v0c.81,2.5-2,3.42-2,3.42a2.49,2.49,0,0,1-.37-1.61.67.67,0,0,0-.19.22,1.75,1.75,0,0,0-.15,1.09,1.89,1.89,0,0,1-.38,1.53s3.56-.17,3.41-2.13a2.83,2.83,0,0,0,1.16,1.52A3.25,3.25,0,0,1,271.35,16a3.37,3.37,0,0,0,.2-2.65,4.13,4.13,0,0,0,1,.82C273.31,14.53,274.11,14.54,274.37,14.94Z"/><path class="cls-2" d="M271.35,16a3.25,3.25,0,0,0-1.23-1.67A2.83,2.83,0,0,1,269,12.85c.16,2-3.41,2.13-3.41,2.13a1.89,1.89,0,0,0,.38-1.53c-.12-1,.34-1.31.34-1.31l-1.4.1a3.21,3.21,0,0,1-2.27-.68,3.59,3.59,0,0,0,1.73-.25,10.22,10.22,0,0,1,4.79-1,6.29,6.29,0,0,1,5.24,4.6c-.26-.4-1.06-.41-1.79-.72a4.13,4.13,0,0,1-1-.82A3.37,3.37,0,0,1,271.35,16Z"/><path class="cls-2" d="M274.37,14.94a6.39,6.39,0,0,0-4.79-4.53h0a3.5,3.5,0,0,1,.93-3.1,4,4,0,0,1,1.75-1.17s.53-.75-.65-1.13c-3.46,1.34-2.93,5.31-2.93,5.31v0c.81,2.5-2,3.42-2,3.42a2.49,2.49,0,0,1-.37-1.61.67.67,0,0,0-.19.22,1.75,1.75,0,0,0-.15,1.09,1.89,1.89,0,0,1-.38,1.53s3.56-.17,3.41-2.13a2.83,2.83,0,0,0,1.16,1.52A3.25,3.25,0,0,1,271.35,16a3.37,3.37,0,0,0,.2-2.65,4.13,4.13,0,0,0,1,.82C273.31,14.53,274.11,14.54,274.37,14.94Z"/><path class="cls-1" d="M236.14,60.35a1.34,1.34,0,0,1,.38-2.61,61.86,61.86,0,0,0,21.69-5.07c6.24-2.88,10.66-8.85,14-13.89,2.14-3.2,6-10.81,8.12-14,3-4.49,11.06-9.08,17-1.08,3.8,5.13-1.16,14.46-3.65,18-7,10-18.67,20.45-31.51,21.34C250.35,63.84,241.79,62.23,236.14,60.35Z"/><path class="cls-1" d="M238.66,56l.26.18,1.29,2.21-.26,2.2-1.79,1.79-.83.3q.82,0,1.63-.1c.7-.06,1.39-.14,2.08-.22,1.72-.21,3.43-.46,5.12-.78A66.48,66.48,0,0,0,255,59.29a34.86,34.86,0,0,0,14.33-8.65,62.83,62.83,0,0,0,9.3-12.71c1.15-2,2.25-4.07,3.39-6.1.52-.94,1-1.87,1.6-2.79.28-.46.55-.92.85-1.38.08-.13.87-1.12.36-.53,2-2.28,4.59-3.81,6.94-2.2,3.3,2.27,2,6,.39,9.5C288,43.39,279.6,51.28,270.83,55.58c-5.71,2.8-12.11,2.85-18.33,2.58a56.38,56.38,0,0,1-15-2.63c-6.13-2-8.76,7.66-2.66,9.64a66.4,66.4,0,0,0,16.89,2.95c7.13.39,14.52.16,21.19-2.6a53.45,53.45,0,0,0,17.74-12.33c4.16-4.27,8.07-9.12,10.51-14.6,2.64-5.93,4.12-13-.25-18.46a14.13,14.13,0,0,0-17.48-4.33c-5.08,2.32-7.81,6.9-10.41,11.58-2.72,4.89-5.32,9.86-9,14.16a24.64,24.64,0,0,1-8.37,6.81,51,51,0,0,1-10.1,3.17,48.73,48.73,0,0,1-5.81,1c-2.05.21-4.43-.07-6.29,1a6.41,6.41,0,0,0,.12,11.15C239.27,67.74,244.32,59.11,238.66,56Z"/><path class="cls-1" d="M263.64,54a41.5,41.5,0,0,0,15-13.76c1.13-1.68,2.59-4.34,4.14-7.15,1.45-2.63,2.91-5.39,4-6.88,2.73-3.8,4.45-4.09,4.45-4.09-3.6-1-7.19,2-8.61,4.07-1,1.52-2.53,4.25-4,6.88-1.55,2.81-3.06,5.43-4.14,7.15-9.14,14.5-23.22,16.88-26.62,17.05A31.46,31.46,0,0,0,263.64,54Z"/><path class="cls-1" d="M266.16,58.37a46.57,46.57,0,0,0,17.69-17c2.17-3.58,4-7.36,6.16-10.94A15.49,15.49,0,0,1,292.65,27c.83-.79-.55.2.53-.34-1.41.71-1,.37-.65.29,4.76-1,4.78-8.64,0-9.64-7-1.47-12.33,2.95-15.68,8.69s-6,11.83-10.48,16.62a31.2,31.2,0,0,1-5.76,4.88q-1.51,1-3.11,1.8c-.5.26-1,.5-1.51.73l-.74.33q.46-.2,0,0A34.78,34.78,0,0,1,250.17,52c-.65.14-1.3.24-1.95.36s1.36-.08.31,0c-.23,0-.46,0-.69.05-6.41.37-6.46,9.74,0,10a37.71,37.71,0,0,0,18.32-4c2.42-1.19,3.09-4.63,1.79-6.84a5.1,5.1,0,0,0-6.84-1.79,27.19,27.19,0,0,1-13.27,2.59v10c8.07-.47,15.78-4.19,22-9.22,4.78-3.89,8.26-8.92,11.3-14.22,1.72-3,3.3-6.11,5.13-9.07.5-.82,2-3.16,3.63-2.82V17.35c-2.23.47-4.2,2.38-5.62,4-2.89,3.37-4.79,7.44-6.94,11.3-4,7.11-8.88,13.19-16.19,17.05C255.42,52.74,260.47,61.37,266.16,58.37Z"/><path class="cls-2" d="M295,26.66a4.25,4.25,0,0,0-1.12-2.48,3.71,3.71,0,0,1-1.08-2.26c-.33,2.56-4.94,1.81-4.94,1.81a2.48,2.48,0,0,0,.91-1.86c.13-1.37.79-1.59.79-1.59L287.7,20A4.2,4.2,0,0,1,285,18.55a4.7,4.7,0,0,0,2.28.15c2.25-.31,3.68-.69,6.4,0a8.24,8.24,0,0,1,5.48,7.32c-.23-.58-1.24-.81-2.1-1.41a5.41,5.41,0,0,1-1.1-1.33A4.41,4.41,0,0,1,295,26.66Z"/><path class="cls-2" d="M299.15,26.05a8.37,8.37,0,0,0-4.92-7.11v0a4.58,4.58,0,0,1,2-3.72,5.18,5.18,0,0,1,2.56-1s.88-.81-.53-1.62c-4.79.78-5.19,6-5.19,6s0,0,0,0c.37,3.43-3.55,3.84-3.55,3.84a3.26,3.26,0,0,1,0-2.17.88.88,0,0,0-.3.23,2.29,2.29,0,0,0-.49,1.36,2.48,2.48,0,0,1-.91,1.86s4.61.75,4.94-1.81a3.71,3.71,0,0,0,1.08,2.26A4.25,4.25,0,0,1,295,26.66a4.41,4.41,0,0,0,1-3.34,5.41,5.41,0,0,0,1.1,1.33C297.9,25.24,298.92,25.47,299.15,26.05Z"/><path class="cls-2" d="M295,26.66a4.25,4.25,0,0,0-1.12-2.48,3.71,3.71,0,0,1-1.08-2.26c-.33,2.56-4.94,1.81-4.94,1.81a2.48,2.48,0,0,0,.91-1.86c.13-1.37.79-1.59.79-1.59L287.7,20A4.2,4.2,0,0,1,285,18.55a4.7,4.7,0,0,0,2.28.15c2.25-.31,3.68-.69,6.4,0a8.24,8.24,0,0,1,5.48,7.32c-.23-.58-1.24-.81-2.1-1.41a5.41,5.41,0,0,1-1.1-1.33A4.41,4.41,0,0,1,295,26.66Z"/><path class="cls-2" d="M299.15,26.05a8.37,8.37,0,0,0-4.92-7.11v0a4.58,4.58,0,0,1,2-3.72,5.18,5.18,0,0,1,2.56-1s.88-.81-.53-1.62c-4.79.78-5.19,6-5.19,6s0,0,0,0c.37,3.43-3.55,3.84-3.55,3.84a3.26,3.26,0,0,1,0-2.17.88.88,0,0,0-.3.23,2.29,2.29,0,0,0-.49,1.36,2.48,2.48,0,0,1-.91,1.86s4.61.75,4.94-1.81a3.71,3.71,0,0,0,1.08,2.26A4.25,4.25,0,0,1,295,26.66a4.41,4.41,0,0,0,1-3.34,5.41,5.41,0,0,0,1.1,1.33C297.9,25.24,298.92,25.47,299.15,26.05Z"/><path class="cls-1" d="M232.71,50.46a1,1,0,0,1-.13-2,47.21,47.21,0,0,0,15.4-7.2c4.2-3.13,6.57-8.28,8.3-12.58,1.1-2.73,2.75-9,3.86-11.76,1.55-3.83,6.83-8.52,12.52-3.48,3.64,3.23,1.41,11,.11,14C269.12,36,262,45.67,252.6,48.36,243.87,50.83,237.23,51,232.71,50.46Z"/><path class="cls-1" d="M234,45.64l-.48-.18,2.21,1.29-.3-.34,1.29,2.21-.12-.44v2.66l-.18.37L234.65,53c1.42-.72,3.76-1.1,5.42-1.79A58.61,58.61,0,0,0,246.71,48a28.8,28.8,0,0,0,9.6-8.46,43.75,43.75,0,0,0,5.31-11c1.12-3.25,1.81-6.72,3.16-9.88-.22.5.54-1,.8-1.26a6.53,6.53,0,0,1,.94-.8c1-.64,1.81-.41,2.8.55.22.22,0-.35.18.44a5.64,5.64,0,0,1,.14,1.65,16,16,0,0,1-.81,4.39,35.72,35.72,0,0,1-11.69,16.87c-6.56,4.88-16.5,5.78-24.43,4.94-2.69-.28-5,2.5-5,5,0,2.94,2.3,4.72,5,5a52.33,52.33,0,0,0,14.25-.7c5.39-.91,10.73-2.39,15.23-5.61,7.81-5.59,14.39-14.84,16.67-24.24,1.15-4.72,1.39-10.25-1.92-14.19A12.16,12.16,0,0,0,261.48,8c-4.53,2.7-6.21,7.38-7.68,12.14-1.29,4.16-2.49,8.28-4.66,12.08-2.78,4.87-7.41,7.56-12.49,9.67-2.91,1.21-7,1.43-8.84,4.28-2.37,3.67-.21,7.75,3.57,9.13,2.54.92,5.48-1,6.15-3.49A5.1,5.1,0,0,0,234,45.64Z"/><path class="cls-1" d="M252.26,41.43a31.67,31.67,0,0,0,9-12.63c.58-1.43,1.25-3.65,2-6s1.32-4.48,1.89-5.76c1.44-3.27,2.68-3.76,2.68-3.76-2.85-.19-5.06,2.6-5.79,4.39-.52,1.3-1.22,3.57-1.89,5.76s-1.43,4.54-2,6A27.34,27.34,0,0,1,241,46.36,24,24,0,0,0,252.26,41.43Z"/><path class="cls-1" d="M255.79,45a36.9,36.9,0,0,0,10.53-15.41c1.07-2.83,1.81-5.77,2.73-8.64a17.91,17.91,0,0,1,1.51-3.44c-.28.51.14-.33.34-.34s-1.08.71-.57.48c4.62-2.13,2.19-9.4-2.52-9.32-12,.22-11.61,15.38-16.09,23.16A24,24,0,0,1,244.82,39a34.41,34.41,0,0,1-3.59,2c-.85.43.64-.23.11,0-.22.08-.44.18-.67.25s-.68.23-1,.32a5.08,5.08,0,0,0-3.49,6.15c.77,2.82,3.48,4,6.15,3.49A30.08,30.08,0,0,0,255.79,45c2.13-1.66,1.74-5.33,0-7.07-2.11-2.11-4.93-1.66-7.07,0a20.14,20.14,0,0,1-9.08,3.64l2.66,9.64a30.34,30.34,0,0,0,15-10.22,39.66,39.66,0,0,0,6.66-12.85c.79-2.42,1.48-4.87,2.29-7.28.21-.63.6-2.52,1.62-2.54L265.3,9c-4.78,2.21-6,9.8-7.4,14.23C256.11,29,253.4,34,248.72,37.89c-2.07,1.73-1.79,5.28,0,7.07C250.77,47,253.71,46.7,255.79,45Z"/><path class="cls-2" d="M271.35,16a3.25,3.25,0,0,0-1.23-1.67A2.83,2.83,0,0,1,269,12.85c.16,2-3.41,2.13-3.41,2.13a1.89,1.89,0,0,0,.38-1.53c-.12-1,.34-1.31.34-1.31l-1.4.1a3.21,3.21,0,0,1-2.27-.68,3.59,3.59,0,0,0,1.73-.25,10.22,10.22,0,0,1,4.79-1,6.29,6.29,0,0,1,5.24,4.6c-.26-.4-1.06-.41-1.79-.72a4.13,4.13,0,0,1-1-.82A3.37,3.37,0,0,1,271.35,16Z"/><path class="cls-2" d="M274.37,14.94a6.39,6.39,0,0,0-4.79-4.53h0a3.5,3.5,0,0,1,.93-3.1,4,4,0,0,1,1.75-1.17s.53-.75-.65-1.13c-3.46,1.34-2.93,5.31-2.93,5.31v0c.81,2.5-2,3.42-2,3.42a2.49,2.49,0,0,1-.37-1.61.67.67,0,0,0-.19.22,1.75,1.75,0,0,0-.15,1.09,1.89,1.89,0,0,1-.38,1.53s3.56-.17,3.41-2.13a2.83,2.83,0,0,0,1.16,1.52A3.25,3.25,0,0,1,271.35,16a3.37,3.37,0,0,0,.2-2.65,4.13,4.13,0,0,0,1,.82C273.31,14.53,274.11,14.54,274.37,14.94Z"/><path class="cls-2" d="M271.35,16a3.25,3.25,0,0,0-1.23-1.67A2.83,2.83,0,0,1,269,12.85c.16,2-3.41,2.13-3.41,2.13a1.89,1.89,0,0,0,.38-1.53c-.12-1,.34-1.31.34-1.31l-1.4.1a3.21,3.21,0,0,1-2.27-.68,3.59,3.59,0,0,0,1.73-.25,10.22,10.22,0,0,1,4.79-1,6.29,6.29,0,0,1,5.24,4.6c-.26-.4-1.06-.41-1.79-.72a4.13,4.13,0,0,1-1-.82A3.37,3.37,0,0,1,271.35,16Z"/><path class="cls-2" d="M274.37,14.94a6.39,6.39,0,0,0-4.79-4.53h0a3.5,3.5,0,0,1,.93-3.1,4,4,0,0,1,1.75-1.17s.53-.75-.65-1.13c-3.46,1.34-2.93,5.31-2.93,5.31v0c.81,2.5-2,3.42-2,3.42a2.49,2.49,0,0,1-.37-1.61.67.67,0,0,0-.19.22,1.75,1.75,0,0,0-.15,1.09,1.89,1.89,0,0,1-.38,1.53s3.56-.17,3.41-2.13a2.83,2.83,0,0,0,1.16,1.52A3.25,3.25,0,0,1,271.35,16a3.37,3.37,0,0,0,.2-2.65,4.13,4.13,0,0,0,1,.82C273.31,14.53,274.11,14.54,274.37,14.94Z"/><path class="cls-1" d="M236.14,60.35a1.34,1.34,0,0,1,.38-2.61,61.86,61.86,0,0,0,21.69-5.07c6.24-2.88,10.66-8.85,14-13.89,2.14-3.2,6-10.81,8.12-14,3-4.49,11.06-9.08,17-1.08,3.8,5.13-1.16,14.46-3.65,18-7,10-18.67,20.45-31.51,21.34C250.35,63.84,241.79,62.23,236.14,60.35Z"/><path class="cls-1" d="M238.66,56l.26.18,1.29,2.21-.26,2.2-1.79,1.79-.83.3q.82,0,1.63-.1c.7-.06,1.39-.14,2.08-.22,1.72-.21,3.43-.46,5.12-.78A66.48,66.48,0,0,0,255,59.29a34.86,34.86,0,0,0,14.33-8.65,62.83,62.83,0,0,0,9.3-12.71c1.15-2,2.25-4.07,3.39-6.1.52-.94,1-1.87,1.6-2.79.28-.46.55-.92.85-1.38.08-.13.87-1.12.36-.53,2-2.28,4.59-3.81,6.94-2.2,3.3,2.27,2,6,.39,9.5C288,43.39,279.6,51.28,270.83,55.58c-5.71,2.8-12.11,2.85-18.33,2.58a56.38,56.38,0,0,1-15-2.63c-6.13-2-8.76,7.66-2.66,9.64a66.4,66.4,0,0,0,16.89,2.95c7.13.39,14.52.16,21.19-2.6a53.45,53.45,0,0,0,17.74-12.33c4.16-4.27,8.07-9.12,10.51-14.6,2.64-5.93,4.12-13-.25-18.46a14.13,14.13,0,0,0-17.48-4.33c-5.08,2.32-7.81,6.9-10.41,11.58-2.72,4.89-5.32,9.86-9,14.16a24.64,24.64,0,0,1-8.37,6.81,51,51,0,0,1-10.1,3.17,48.73,48.73,0,0,1-5.81,1c-2.05.21-4.43-.07-6.29,1a6.41,6.41,0,0,0,.12,11.15C239.27,67.74,244.32,59.11,238.66,56Z"/><path class="cls-1" d="M263.64,54a41.5,41.5,0,0,0,15-13.76c1.13-1.68,2.59-4.34,4.14-7.15,1.45-2.63,2.91-5.39,4-6.88,2.73-3.8,4.45-4.09,4.45-4.09-3.6-1-7.19,2-8.61,4.07-1,1.52-2.53,4.25-4,6.88-1.55,2.81-3.06,5.43-4.14,7.15-9.14,14.5-23.22,16.88-26.62,17.05A31.46,31.46,0,0,0,263.64,54Z"/><path class="cls-1" d="M266.16,58.37a46.57,46.57,0,0,0,17.69-17c2.17-3.58,4-7.36,6.16-10.94A15.49,15.49,0,0,1,292.65,27c.83-.79-.55.2.53-.34-1.41.71-1,.37-.65.29,4.76-1,4.78-8.64,0-9.64-7-1.47-12.33,2.95-15.68,8.69s-6,11.83-10.48,16.62a31.2,31.2,0,0,1-5.76,4.88q-1.51,1-3.11,1.8c-.5.26-1,.5-1.51.73l-.74.33q.46-.2,0,0A34.78,34.78,0,0,1,250.17,52c-.65.14-1.3.24-1.95.36s1.36-.08.31,0c-.23,0-.46,0-.69.05-6.41.37-6.46,9.74,0,10a37.71,37.71,0,0,0,18.32-4c2.42-1.19,3.09-4.63,1.79-6.84a5.1,5.1,0,0,0-6.84-1.79,27.19,27.19,0,0,1-13.27,2.59v10c8.07-.47,15.78-4.19,22-9.22,4.78-3.89,8.26-8.92,11.3-14.22,1.72-3,3.3-6.11,5.13-9.07.5-.82,2-3.16,3.63-2.82V17.35c-2.23.47-4.2,2.38-5.62,4-2.89,3.37-4.79,7.44-6.94,11.3-4,7.11-8.88,13.19-16.19,17.05C255.42,52.74,260.47,61.37,266.16,58.37Z"/><path class="cls-2" d="M295,26.66a4.25,4.25,0,0,0-1.12-2.48,3.71,3.71,0,0,1-1.08-2.26c-.33,2.56-4.94,1.81-4.94,1.81a2.48,2.48,0,0,0,.91-1.86c.13-1.37.79-1.59.79-1.59L287.7,20A4.2,4.2,0,0,1,285,18.55a4.7,4.7,0,0,0,2.28.15c2.25-.31,3.68-.69,6.4,0a8.24,8.24,0,0,1,5.48,7.32c-.23-.58-1.24-.81-2.1-1.41a5.41,5.41,0,0,1-1.1-1.33A4.41,4.41,0,0,1,295,26.66Z"/><path class="cls-2" d="M299.15,26.05a8.37,8.37,0,0,0-4.92-7.11v0a4.58,4.58,0,0,1,2-3.72,5.18,5.18,0,0,1,2.56-1s.88-.81-.53-1.62c-4.79.78-5.19,6-5.19,6s0,0,0,0c.37,3.43-3.55,3.84-3.55,3.84a3.26,3.26,0,0,1,0-2.17.88.88,0,0,0-.3.23,2.29,2.29,0,0,0-.49,1.36,2.48,2.48,0,0,1-.91,1.86s4.61.75,4.94-1.81a3.71,3.71,0,0,0,1.08,2.26A4.25,4.25,0,0,1,295,26.66a4.41,4.41,0,0,0,1-3.34,5.41,5.41,0,0,0,1.1,1.33C297.9,25.24,298.92,25.47,299.15,26.05Z"/><path class="cls-2" d="M295,26.66a4.25,4.25,0,0,0-1.12-2.48,3.71,3.71,0,0,1-1.08-2.26c-.33,2.56-4.94,1.81-4.94,1.81a2.48,2.48,0,0,0,.91-1.86c.13-1.37.79-1.59.79-1.59L287.7,20A4.2,4.2,0,0,1,285,18.55a4.7,4.7,0,0,0,2.28.15c2.25-.31,3.68-.69,6.4,0a8.24,8.24,0,0,1,5.48,7.32c-.23-.58-1.24-.81-2.1-1.41a5.41,5.41,0,0,1-1.1-1.33A4.41,4.41,0,0,1,295,26.66Z"/><path class="cls-2" d="M299.15,26.05a8.37,8.37,0,0,0-4.92-7.11v0a4.58,4.58,0,0,1,2-3.72,5.18,5.18,0,0,1,2.56-1s.88-.81-.53-1.62c-4.79.78-5.19,6-5.19,6s0,0,0,0c.37,3.43-3.55,3.84-3.55,3.84a3.26,3.26,0,0,1,0-2.17.88.88,0,0,0-.3.23,2.29,2.29,0,0,0-.49,1.36,2.48,2.48,0,0,1-.91,1.86s4.61.75,4.94-1.81a3.71,3.71,0,0,0,1.08,2.26A4.25,4.25,0,0,1,295,26.66a4.41,4.41,0,0,0,1-3.34,5.41,5.41,0,0,0,1.1,1.33C297.9,25.24,298.92,25.47,299.15,26.05Z"/><path class="cls-2" d="M110,28.88q1.25.57,2.55,1.28a10.54,10.54,0,0,1,2.35,1.76,9,9,0,0,1,1.76,2.5,8.69,8.69,0,0,1,.78,3.47,10.51,10.51,0,0,1-.92,5,10.23,10.23,0,0,1-2.94,3.68A13.91,13.91,0,0,1,109,48.9a21.9,21.9,0,0,1-5.68.94,19.64,19.64,0,0,1-2.87-.14,23,23,0,0,1-2.92-.54,28.58,28.58,0,0,1-2.8-.86q-1.37-.5-2.56-1.06l3-8.55q.59.23,1.43.62a18.64,18.64,0,0,0,1.81.7q1,.32,2,.56a7.77,7.77,0,0,0,2,.2,7.36,7.36,0,0,0,2.51-.52,1.41,1.41,0,0,0,1-1.47,1.22,1.22,0,0,0-.69-1,12.59,12.59,0,0,0-1.57-.71l-1.58-.45a17.26,17.26,0,0,1-2.1-.75,18.67,18.67,0,0,1-2.27-1.16A10.34,10.34,0,0,1,95.66,33a8.6,8.6,0,0,1-1.56-2.22,6.81,6.81,0,0,1-.66-2.9,10.69,10.69,0,0,1,1-5,11.27,11.27,0,0,1,2.84-3.72,12.64,12.64,0,0,1,4.2-2.36,18.18,18.18,0,0,1,5.12-.94,25.16,25.16,0,0,1,5,.26,20.69,20.69,0,0,1,4.65,1.26l-2.36,9.24q-1.6-.68-2.92-1.14a15.75,15.75,0,0,0-3.08-.69,10.08,10.08,0,0,0-1.41-.08,7.9,7.9,0,0,0-1.66.18,4,4,0,0,0-1.42.58,1.37,1.37,0,0,0-.63,1.12.56.56,0,0,0,.29.51,2.45,2.45,0,0,0,.71.27q.42.1.86.16l.73.1,2.48.57A11.14,11.14,0,0,1,110,28.88Z"/><path class="cls-2" d="M118.13,18l22.07-1.64L139,26.48l-10,.45,0,1.91,7.27-.53-.84,7-6.68.51L128.55,38,140,37l-.2,11L118.4,49.16Z"/><path class="cls-2" d="M142,17.67,154,16l-1,22.52,9.8-2,.47,11.25-21,2.11Z"/><path class="cls-2" d="M164.28,18l22.11-1.6-1.23,10.39-10.08.41-.45,3.13,8.4-.53.57,8.4-8.44.53-.41,10.23-10.2.23Z"/><path class="cls-2" d="M198.3,16.09l-1.64,32.34-10.51,1.21.39-32.17Z"/><path class="cls-2" d="M200.88,18l22.07-1.64-1.23,10.12-10,.45,0,1.91,7.27-.53-.84,7-6.68.51L211.31,38,222.75,37l-.2,11-21.41,1.15Z"/><path class="cls-2" d="M240,28.88q1.25.57,2.55,1.28a10.53,10.53,0,0,1,2.35,1.76,9,9,0,0,1,1.76,2.5,8.68,8.68,0,0,1,.78,3.47,10.5,10.5,0,0,1-.92,5,10.23,10.23,0,0,1-2.94,3.68,13.91,13.91,0,0,1-4.54,2.32,21.9,21.9,0,0,1-5.68.94,19.64,19.64,0,0,1-2.87-.14,23,23,0,0,1-2.92-.54,28.58,28.58,0,0,1-2.8-.86q-1.37-.5-2.56-1.06l3-8.55q.59.23,1.43.62a18.64,18.64,0,0,0,1.81.7q1,.32,2,.56a7.78,7.78,0,0,0,2,.2,7.36,7.36,0,0,0,2.51-.52,1.41,1.41,0,0,0,1-1.47,1.22,1.22,0,0,0-.69-1,12.56,12.56,0,0,0-1.57-.71l-1.58-.45a17.29,17.29,0,0,1-2.1-.75,18.67,18.67,0,0,1-2.27-1.16A10.34,10.34,0,0,1,225.72,33a8.61,8.61,0,0,1-1.56-2.22,6.82,6.82,0,0,1-.66-2.9,10.71,10.71,0,0,1,1-5,11.27,11.27,0,0,1,2.84-3.72,12.65,12.65,0,0,1,4.2-2.36,18.18,18.18,0,0,1,5.12-.94,25.16,25.16,0,0,1,5,.26,20.69,20.69,0,0,1,4.65,1.26l-2.36,9.24q-1.6-.68-2.92-1.14a15.75,15.75,0,0,0-3.08-.69,10.08,10.08,0,0,0-1.41-.08,7.9,7.9,0,0,0-1.66.18,4,4,0,0,0-1.42.58,1.37,1.37,0,0,0-.63,1.12.56.56,0,0,0,.29.51,2.45,2.45,0,0,0,.71.27q.42.1.86.16l.73.1,2.48.57A11.14,11.14,0,0,1,240,28.88Z"/><path class="cls-2" d="M5,17.52,16.68,16.4,15.27,31.07l5.92-.43.49-14,11.39-.55L29.82,47l-9.28,1.11.53-8.81-4.2.61-.41,9.2-10,.2Z"/><path class="cls-2" d="M58.89,45.72a14.17,14.17,0,0,1-3.51,2.52A19.21,19.21,0,0,1,51,49.88a19.45,19.45,0,0,1-4.86.53,14.84,14.84,0,0,1-4.79-.86A13.05,13.05,0,0,1,37.08,47,12.28,12.28,0,0,1,34,42.67a18,18,0,0,1-1.62-5.95A18,18,0,0,1,34.8,25.84a21.13,21.13,0,0,1,3.48-4.41,22.65,22.65,0,0,1,10-5.62,14.36,14.36,0,0,1,5.1-.42,14,14,0,0,1,4.31,1.14,12,12,0,0,1,3.26,2.14,10,10,0,0,1,2,2.55,21.34,21.34,0,0,1,1.86,5.42,20.25,20.25,0,0,1,.28,6.26,21.29,21.29,0,0,1-1.83,6.53A22.29,22.29,0,0,1,58.89,45.72Zm-5.33-17a3.68,3.68,0,0,0-1.69-1.85,4.58,4.58,0,0,0-2.38-.48,6.67,6.67,0,0,0-2.6.74,8.45,8.45,0,0,0-2.4,1.84A9.64,9.64,0,0,0,42,35.52a6.8,6.8,0,0,0,.55,3.12A4.25,4.25,0,0,0,44,40.42a4.19,4.19,0,0,0,2.06.64,5.78,5.78,0,0,0,2.29-.33,7.59,7.59,0,0,0,2.14-1.18,7.43,7.43,0,0,0,1.69-1.84,13.35,13.35,0,0,0,1.46-2.89,10.62,10.62,0,0,0,.56-2.46,7,7,0,0,0-.1-2A6.26,6.26,0,0,0,53.55,28.69Z"/><path class="cls-2" d="M84.61,25.19l-4.8.57V48.28L68.44,49.68,69,26.83l-5.27.53L64,17.52l21.6-1.84Z"/><path class="cls-3" d="M5,17.52,16.68,16.4,15.27,31.07l5.92-.43.49-14,11.39-.55L29.82,47l-9.28,1.11.53-8.81-4.2.61-.41,9.2-10,.2Z"/><path class="cls-3" d="M58.89,45.72a14.17,14.17,0,0,1-3.51,2.52A19.21,19.21,0,0,1,51,49.88a19.45,19.45,0,0,1-4.86.53,14.84,14.84,0,0,1-4.79-.86A13.05,13.05,0,0,1,37.08,47,12.28,12.28,0,0,1,34,42.67a18,18,0,0,1-1.62-5.95A18,18,0,0,1,34.8,25.84a21.13,21.13,0,0,1,3.48-4.41,22.65,22.65,0,0,1,10-5.62,14.36,14.36,0,0,1,5.1-.42,14,14,0,0,1,4.31,1.14,12,12,0,0,1,3.26,2.14,10,10,0,0,1,2,2.55,21.34,21.34,0,0,1,1.86,5.42,20.25,20.25,0,0,1,.28,6.26,21.29,21.29,0,0,1-1.83,6.53A22.29,22.29,0,0,1,58.89,45.72Zm-5.33-17a3.68,3.68,0,0,0-1.69-1.85,4.58,4.58,0,0,0-2.38-.48,6.67,6.67,0,0,0-2.6.74,8.45,8.45,0,0,0-2.4,1.84A9.64,9.64,0,0,0,42,35.52a6.8,6.8,0,0,0,.55,3.12A4.25,4.25,0,0,0,44,40.42a4.19,4.19,0,0,0,2.06.64,5.78,5.78,0,0,0,2.29-.33,7.59,7.59,0,0,0,2.14-1.18,7.43,7.43,0,0,0,1.69-1.84,13.35,13.35,0,0,0,1.46-2.89,10.62,10.62,0,0,0,.56-2.46,7,7,0,0,0-.1-2A6.26,6.26,0,0,0,53.55,28.69Z"/><path class="cls-3" d="M84.61,25.19l-4.8.57V48.28L68.44,49.68,69,26.83l-5.27.53L64,17.52l21.6-1.84Z"/><path class="cls-4" d="M5,17.52,16.68,16.4,15.27,31.07l5.92-.43.49-14,11.39-.55L29.82,47l-9.28,1.11.53-8.81-4.2.61-.41,9.2-10,.2Z"/><path class="cls-4" d="M58.89,45.72a14.17,14.17,0,0,1-3.51,2.52A19.21,19.21,0,0,1,51,49.88a19.45,19.45,0,0,1-4.86.53,14.84,14.84,0,0,1-4.79-.86A13.05,13.05,0,0,1,37.08,47,12.28,12.28,0,0,1,34,42.67a18,18,0,0,1-1.62-5.95A18,18,0,0,1,34.8,25.84a21.13,21.13,0,0,1,3.48-4.41,22.65,22.65,0,0,1,10-5.62,14.36,14.36,0,0,1,5.1-.42,14,14,0,0,1,4.31,1.14,12,12,0,0,1,3.26,2.14,10,10,0,0,1,2,2.55,21.34,21.34,0,0,1,1.86,5.42,20.25,20.25,0,0,1,.28,6.26,21.29,21.29,0,0,1-1.83,6.53A22.29,22.29,0,0,1,58.89,45.72Zm-5.33-17a3.68,3.68,0,0,0-1.69-1.85,4.58,4.58,0,0,0-2.38-.48,6.67,6.67,0,0,0-2.6.74,8.45,8.45,0,0,0-2.4,1.84A9.64,9.64,0,0,0,42,35.52a6.8,6.8,0,0,0,.55,3.12A4.25,4.25,0,0,0,44,40.42a4.19,4.19,0,0,0,2.06.64,5.78,5.78,0,0,0,2.29-.33,7.59,7.59,0,0,0,2.14-1.18,7.43,7.43,0,0,0,1.69-1.84,13.35,13.35,0,0,0,1.46-2.89,10.62,10.62,0,0,0,.56-2.46,7,7,0,0,0-.1-2A6.26,6.26,0,0,0,53.55,28.69Z"/><path class="cls-4" d="M84.61,25.19l-4.8.57V48.28L68.44,49.68,69,26.83l-5.27.53L64,17.52l21.6-1.84Z"/><path class="cls-3" d="M110,28.88q1.25.57,2.55,1.28a10.54,10.54,0,0,1,2.35,1.76,9,9,0,0,1,1.76,2.5,8.69,8.69,0,0,1,.78,3.47,10.51,10.51,0,0,1-.92,5,10.23,10.23,0,0,1-2.94,3.68A13.91,13.91,0,0,1,109,48.9a21.9,21.9,0,0,1-5.68.94,19.64,19.64,0,0,1-2.87-.14,23,23,0,0,1-2.92-.54,28.58,28.58,0,0,1-2.8-.86q-1.37-.5-2.56-1.06l3-8.55q.59.23,1.43.62a18.64,18.64,0,0,0,1.81.7q1,.32,2,.56a7.77,7.77,0,0,0,2,.2,7.36,7.36,0,0,0,2.51-.52,1.41,1.41,0,0,0,1-1.47,1.22,1.22,0,0,0-.69-1,12.59,12.59,0,0,0-1.57-.71l-1.58-.45a17.26,17.26,0,0,1-2.1-.75,18.67,18.67,0,0,1-2.27-1.16A10.34,10.34,0,0,1,95.66,33a8.6,8.6,0,0,1-1.56-2.22,6.81,6.81,0,0,1-.66-2.9,10.69,10.69,0,0,1,1-5,11.27,11.27,0,0,1,2.84-3.72,12.64,12.64,0,0,1,4.2-2.36,18.18,18.18,0,0,1,5.12-.94,25.16,25.16,0,0,1,5,.26,20.69,20.69,0,0,1,4.65,1.26l-2.36,9.24q-1.6-.68-2.92-1.14a15.75,15.75,0,0,0-3.08-.69,10.08,10.08,0,0,0-1.41-.08,7.9,7.9,0,0,0-1.66.18,4,4,0,0,0-1.42.58,1.37,1.37,0,0,0-.63,1.12.56.56,0,0,0,.29.51,2.45,2.45,0,0,0,.71.27q.42.1.86.16l.73.1,2.48.57A11.14,11.14,0,0,1,110,28.88Z"/><path class="cls-3" d="M118.13,18l22.07-1.64L139,26.48l-10,.45,0,1.91,7.27-.53-.84,7-6.68.51L128.55,38,140,37l-.2,11L118.4,49.16Z"/><path class="cls-3" d="M142,17.67,154,16l-1,22.52,9.8-2,.47,11.25-21,2.11Z"/><path class="cls-3" d="M164.28,18l22.11-1.6-1.23,10.39-10.08.41-.45,3.13,8.4-.53.57,8.4-8.44.53-.41,10.23-10.2.23Z"/><path class="cls-3" d="M198.3,16.09l-1.64,32.34-10.51,1.21.39-32.17Z"/><path class="cls-3" d="M200.88,18l22.07-1.64-1.23,10.12-10,.45,0,1.91,7.27-.53-.84,7-6.68.51L211.31,38,222.75,37l-.2,11-21.41,1.15Z"/><path class="cls-3" d="M240,28.88q1.25.57,2.55,1.28a10.53,10.53,0,0,1,2.35,1.76,9,9,0,0,1,1.76,2.5,8.68,8.68,0,0,1,.78,3.47,10.5,10.5,0,0,1-.92,5,10.23,10.23,0,0,1-2.94,3.68,13.91,13.91,0,0,1-4.54,2.32,21.9,21.9,0,0,1-5.68.94,19.64,19.64,0,0,1-2.87-.14,23,23,0,0,1-2.92-.54,28.58,28.58,0,0,1-2.8-.86q-1.37-.5-2.56-1.06l3-8.55q.59.23,1.43.62a18.64,18.64,0,0,0,1.81.7q1,.32,2,.56a7.78,7.78,0,0,0,2,.2,7.36,7.36,0,0,0,2.51-.52,1.41,1.41,0,0,0,1-1.47,1.22,1.22,0,0,0-.69-1,12.56,12.56,0,0,0-1.57-.71l-1.58-.45a17.29,17.29,0,0,1-2.1-.75,18.67,18.67,0,0,1-2.27-1.16A10.34,10.34,0,0,1,225.72,33a8.61,8.61,0,0,1-1.56-2.22,6.82,6.82,0,0,1-.66-2.9,10.71,10.71,0,0,1,1-5,11.27,11.27,0,0,1,2.84-3.72,12.65,12.65,0,0,1,4.2-2.36,18.18,18.18,0,0,1,5.12-.94,25.16,25.16,0,0,1,5,.26,20.69,20.69,0,0,1,4.65,1.26l-2.36,9.24q-1.6-.68-2.92-1.14a15.75,15.75,0,0,0-3.08-.69,10.08,10.08,0,0,0-1.41-.08,7.9,7.9,0,0,0-1.66.18,4,4,0,0,0-1.42.58,1.37,1.37,0,0,0-.63,1.12.56.56,0,0,0,.29.51,2.45,2.45,0,0,0,.71.27q.42.1.86.16l.73.1,2.48.57A11.14,11.14,0,0,1,240,28.88Z"/><path class="cls-5" d="M110,28.88q1.25.57,2.55,1.28a10.54,10.54,0,0,1,2.35,1.76,9,9,0,0,1,1.76,2.5,8.69,8.69,0,0,1,.78,3.47,10.51,10.51,0,0,1-.92,5,10.23,10.23,0,0,1-2.94,3.68A13.91,13.91,0,0,1,109,48.9a21.9,21.9,0,0,1-5.68.94,19.64,19.64,0,0,1-2.87-.14,23,23,0,0,1-2.92-.54,28.58,28.58,0,0,1-2.8-.86q-1.37-.5-2.56-1.06l3-8.55q.59.23,1.43.62a18.64,18.64,0,0,0,1.81.7q1,.32,2,.56a7.77,7.77,0,0,0,2,.2,7.36,7.36,0,0,0,2.51-.52,1.41,1.41,0,0,0,1-1.47,1.22,1.22,0,0,0-.69-1,12.59,12.59,0,0,0-1.57-.71l-1.58-.45a17.26,17.26,0,0,1-2.1-.75,18.67,18.67,0,0,1-2.27-1.16A10.34,10.34,0,0,1,95.66,33a8.6,8.6,0,0,1-1.56-2.22,6.81,6.81,0,0,1-.66-2.9,10.69,10.69,0,0,1,1-5,11.27,11.27,0,0,1,2.84-3.72,12.64,12.64,0,0,1,4.2-2.36,18.18,18.18,0,0,1,5.12-.94,25.16,25.16,0,0,1,5,.26,20.69,20.69,0,0,1,4.65,1.26l-2.36,9.24q-1.6-.68-2.92-1.14a15.75,15.75,0,0,0-3.08-.69,10.08,10.08,0,0,0-1.41-.08,7.9,7.9,0,0,0-1.66.18,4,4,0,0,0-1.42.58,1.37,1.37,0,0,0-.63,1.12.56.56,0,0,0,.29.51,2.45,2.45,0,0,0,.71.27q.42.1.86.16l.73.1,2.48.57A11.14,11.14,0,0,1,110,28.88Z"/><path class="cls-5" d="M118.13,18l22.07-1.64L139,26.48l-10,.45,0,3.07h7.27l-.68,4-6.84,1-.08,3L140,37l-.2,11L118.4,49.16Z"/><path class="cls-5" d="M142,17.67,154,16l-1,22.52,9.8-2,.47,11.25-21,2.11Z"/><path class="cls-5" d="M164.28,18l22.11-1.6-1.23,10.39-10.08.41-.45,3.13,8.4-.53.57,8.4-8.44.53-.41,10.23-10.2.23Z"/><path class="cls-5" d="M198.3,16.09l-1.64,32.34-10.51,1.21.39-32.17Z"/><path class="cls-5" d="M240,28.88q1.25.57,2.55,1.28a10.53,10.53,0,0,1,2.35,1.76,9,9,0,0,1,1.76,2.5,8.68,8.68,0,0,1,.78,3.47,10.5,10.5,0,0,1-.92,5,10.23,10.23,0,0,1-2.94,3.68,13.91,13.91,0,0,1-4.54,2.32,21.9,21.9,0,0,1-5.68.94,19.64,19.64,0,0,1-2.87-.14,23,23,0,0,1-2.92-.54,28.58,28.58,0,0,1-2.8-.86q-1.37-.5-2.56-1.06l3-8.55q.59.23,1.43.62a18.64,18.64,0,0,0,1.81.7q1,.32,2,.56a7.78,7.78,0,0,0,2,.2,7.36,7.36,0,0,0,2.51-.52,1.41,1.41,0,0,0,1-1.47,1.22,1.22,0,0,0-.69-1,12.56,12.56,0,0,0-1.57-.71l-1.58-.45a17.29,17.29,0,0,1-2.1-.75,18.67,18.67,0,0,1-2.27-1.16A10.34,10.34,0,0,1,225.72,33a8.61,8.61,0,0,1-1.56-2.22,6.82,6.82,0,0,1-.66-2.9,10.71,10.71,0,0,1,1-5,11.27,11.27,0,0,1,2.84-3.72,12.65,12.65,0,0,1,4.2-2.36,18.18,18.18,0,0,1,5.12-.94,25.16,25.16,0,0,1,5,.26,20.69,20.69,0,0,1,4.65,1.26l-2.36,9.24q-1.6-.68-2.92-1.14a15.75,15.75,0,0,0-3.08-.69,10.08,10.08,0,0,0-1.41-.08,7.9,7.9,0,0,0-1.66.18,4,4,0,0,0-1.42.58,1.37,1.37,0,0,0-.63,1.12.56.56,0,0,0,.29.51,2.45,2.45,0,0,0,.71.27q.42.1.86.16l.73.1,2.48.57A11.14,11.14,0,0,1,240,28.88Z"/><path class="cls-5" d="M201.13,18l22.07-1.64L222,26.48l-10,.45,0,3.07h7.27l-.68,4-6.84,1-.08,3L223,37l-.2,11L201.4,49.16Z"/><path class="cls-6" d="M232.71,50.46a1,1,0,0,1-.13-2,47.21,47.21,0,0,0,15.4-7.2c4.2-3.13,6.57-8.28,8.3-12.58,1.1-2.73,2.75-9,3.86-11.76,1.55-3.83,6.83-8.52,12.52-3.48,3.64,3.23,1.41,11,.11,14C269.12,36,262,45.67,252.6,48.36,243.87,50.83,237.23,51,232.71,50.46Z"/><path class="cls-7" d="M233,49.5c.43.16,2.46-.81,2.94-1,1-.35,2.08-.75,3.1-1.18a52.14,52.14,0,0,0,5.69-2.79,24.28,24.28,0,0,0,8.17-7c4.29-6.06,5.37-13.18,8.07-19.91,1.81-4.52,7.26-7.52,11.22-3.28,2.49,2.67,1.48,7.25.54,10.37A38.55,38.55,0,0,1,259.16,44c-7.18,5.18-17.81,6.4-26.45,5.49-1.28-.13-1.27,1.87,0,2a48.45,48.45,0,0,0,13.19-.55c5.08-.86,10-2.15,14.28-5.2A40.07,40.07,0,0,0,275,23.85c.79-3.28,1.28-7.43-.89-10.3a8.13,8.13,0,0,0-10.61-2.12c-3.56,2.16-4.69,6-5.85,9.75-1.38,4.48-2.73,8.94-5.07,13-3.3,5.79-8.84,9.08-14.88,11.51a39.51,39.51,0,0,1-4.25,1.45,3.86,3.86,0,0,0-2.19,1c-1.05,1.29-.17,2.76,1.18,3.25S234.18,49.94,233,49.5Z"/><path class="cls-8" d="M252.26,41.43a31.67,31.67,0,0,0,9-12.63c.58-1.43,1.25-3.65,2-6s1.32-4.48,1.89-5.76c1.44-3.27,2.68-3.76,2.68-3.76-2.85-.19-5.06,2.6-5.79,4.39-.52,1.3-1.22,3.57-1.89,5.76s-1.43,4.54-2,6A27.34,27.34,0,0,1,241,46.36,24,24,0,0,0,252.26,41.43Z"/><path class="cls-9" d="M271.35,16a3.25,3.25,0,0,0-1.23-1.67A2.83,2.83,0,0,1,269,12.85c.16,2-3.41,2.13-3.41,2.13a1.89,1.89,0,0,0,.38-1.53c-.12-1,.34-1.31.34-1.31l-1.4.1a3.21,3.21,0,0,1-2.27-.68,3.59,3.59,0,0,0,1.73-.25,10.22,10.22,0,0,1,4.79-1,6.29,6.29,0,0,1,5.24,4.6c-.26-.4-1.06-.41-1.79-.72a4.13,4.13,0,0,1-1-.82A3.37,3.37,0,0,1,271.35,16Z"/><path class="cls-9" d="M274.37,14.94a6.39,6.39,0,0,0-4.79-4.53h0a3.5,3.5,0,0,1,.93-3.1,4,4,0,0,1,1.75-1.17s.53-.75-.65-1.13c-3.46,1.34-2.93,5.31-2.93,5.31v0c.81,2.5-2,3.42-2,3.42a2.49,2.49,0,0,1-.37-1.61.67.67,0,0,0-.19.22,1.75,1.75,0,0,0-.15,1.09,1.89,1.89,0,0,1-.38,1.53s3.56-.17,3.41-2.13a2.83,2.83,0,0,0,1.16,1.52A3.25,3.25,0,0,1,271.35,16a3.37,3.37,0,0,0,.2-2.65,4.13,4.13,0,0,0,1,.82C273.31,14.53,274.11,14.54,274.37,14.94Z"/><path class="cls-10" d="M271.35,16a3.25,3.25,0,0,0-1.23-1.67A2.83,2.83,0,0,1,269,12.85c.16,2-3.41,2.13-3.41,2.13a1.89,1.89,0,0,0,.38-1.53c-.12-1,.34-1.31.34-1.31l-1.4.1a3.21,3.21,0,0,1-2.27-.68,3.59,3.59,0,0,0,1.73-.25,10.22,10.22,0,0,1,4.79-1,6.29,6.29,0,0,1,5.24,4.6c-.26-.4-1.06-.41-1.79-.72a4.13,4.13,0,0,1-1-.82A3.37,3.37,0,0,1,271.35,16Z"/><path class="cls-10" d="M274.37,14.94a6.39,6.39,0,0,0-4.79-4.53h0a3.5,3.5,0,0,1,.93-3.1,4,4,0,0,1,1.75-1.17s.53-.75-.65-1.13c-3.46,1.34-2.93,5.31-2.93,5.31v0c.81,2.5-2,3.42-2,3.42a2.49,2.49,0,0,1-.37-1.61.67.67,0,0,0-.19.22,1.75,1.75,0,0,0-.15,1.09,1.89,1.89,0,0,1-.38,1.53s3.56-.17,3.41-2.13a2.83,2.83,0,0,0,1.16,1.52A3.25,3.25,0,0,1,271.35,16a3.37,3.37,0,0,0,.2-2.65,4.13,4.13,0,0,0,1,.82C273.31,14.53,274.11,14.54,274.37,14.94Z"/><path class="cls-6" d="M236.14,60.35a1.34,1.34,0,0,1,.38-2.61,61.86,61.86,0,0,0,21.69-5.07c6.24-2.88,10.66-8.85,14-13.89,2.14-3.2,6-10.81,8.12-14,3-4.49,11.06-9.08,17-1.08,3.8,5.13-1.16,14.46-3.65,18-7,10-18.67,20.45-31.51,21.34C250.35,63.84,241.79,62.23,236.14,60.35Z"/><path class="cls-7" d="M236.64,59.49c-.83-.45,2.39-.89,2.31-.88.7-.06,1.39-.13,2.08-.22q2-.25,4.06-.64a66.48,66.48,0,0,0,8.81-2.32,30.51,30.51,0,0,0,12.57-7.62,58.61,58.61,0,0,0,8.67-11.9c2.16-3.8,4-8.26,6.82-11.61,3.14-3.68,8.51-5.53,12.59-2.2,4.68,3.81,3.28,9.56,1,14.35C291.1,45.9,282.2,54.51,272.85,59c-6.41,3.1-13.34,3.44-20.35,3.13a60.56,60.56,0,0,1-16.09-2.77c-1.23-.4-1.75,1.53-.53,1.93a62.08,62.08,0,0,0,15.83,2.81c6.8.37,13.76.21,20.13-2.45a49.13,49.13,0,0,0,16-11.31,48.16,48.16,0,0,0,9.89-13.79C299.54,32.4,301,27,298.07,23s-7.89-5.78-12.63-3.71c-4.49,2-6.71,6.06-9,10.15-2.9,5.21-5.71,10.39-9.58,15-5.38,6.35-12.26,9.22-20.23,11a57.09,57.09,0,0,1-6.88,1.15c-1.29.13-3.09-.15-4.27.45a2.37,2.37,0,0,0,.12,4.24C236.76,61.83,237.77,60.11,236.64,59.49Z"/><path class="cls-8" d="M263.64,54a41.5,41.5,0,0,0,15-13.76c1.13-1.68,2.59-4.34,4.14-7.15,1.45-2.63,2.91-5.39,4-6.88,2.73-3.8,4.45-4.09,4.45-4.09-3.6-1-7.19,2-8.61,4.07-1,1.52-2.53,4.25-4,6.88-1.55,2.81-3.06,5.43-4.14,7.15-9.14,14.5-23.22,16.88-26.62,17.05A31.46,31.46,0,0,0,263.64,54Z"/><path class="cls-11" d="M295,26.66a4.25,4.25,0,0,0-1.12-2.48,3.71,3.71,0,0,1-1.08-2.26c-.33,2.56-4.94,1.81-4.94,1.81a2.48,2.48,0,0,0,.91-1.86c.13-1.37.79-1.59.79-1.59L287.7,20A4.2,4.2,0,0,1,285,18.55a4.7,4.7,0,0,0,2.28.15c2.25-.31,3.68-.69,6.4,0a8.24,8.24,0,0,1,5.48,7.32c-.23-.58-1.24-.81-2.1-1.41a5.41,5.41,0,0,1-1.1-1.33A4.41,4.41,0,0,1,295,26.66Z"/><path class="cls-11" d="M299.15,26.05a8.37,8.37,0,0,0-4.92-7.11v0a4.58,4.58,0,0,1,2-3.72,5.18,5.18,0,0,1,2.56-1s.88-.81-.53-1.62c-4.79.78-5.19,6-5.19,6s0,0,0,0c.37,3.43-3.55,3.84-3.55,3.84a3.26,3.26,0,0,1,0-2.17.88.88,0,0,0-.3.23,2.29,2.29,0,0,0-.49,1.36,2.48,2.48,0,0,1-.91,1.86s4.61.75,4.94-1.81a3.71,3.71,0,0,0,1.08,2.26A4.25,4.25,0,0,1,295,26.66a4.41,4.41,0,0,0,1-3.34,5.41,5.41,0,0,0,1.1,1.33C297.9,25.24,298.92,25.47,299.15,26.05Z"/><path class="cls-10" d="M295,26.66a4.25,4.25,0,0,0-1.12-2.48,3.71,3.71,0,0,1-1.08-2.26c-.33,2.56-4.94,1.81-4.94,1.81a2.48,2.48,0,0,0,.91-1.86c.13-1.37.79-1.59.79-1.59L287.7,20A4.2,4.2,0,0,1,285,18.55a4.7,4.7,0,0,0,2.28.15c2.25-.31,3.68-.69,6.4,0a8.24,8.24,0,0,1,5.48,7.32c-.23-.58-1.24-.81-2.1-1.41a5.41,5.41,0,0,1-1.1-1.33A4.41,4.41,0,0,1,295,26.66Z"/><path class="cls-10" d="M299.15,26.05a8.37,8.37,0,0,0-4.92-7.11v0a4.58,4.58,0,0,1,2-3.72,5.18,5.18,0,0,1,2.56-1s.88-.81-.53-1.62c-4.79.78-5.19,6-5.19,6s0,0,0,0c.37,3.43-3.55,3.84-3.55,3.84a3.26,3.26,0,0,1,0-2.17.88.88,0,0,0-.3.23,2.29,2.29,0,0,0-.49,1.36,2.48,2.48,0,0,1-.91,1.86s4.61.75,4.94-1.81a3.71,3.71,0,0,0,1.08,2.26A4.25,4.25,0,0,1,295,26.66a4.41,4.41,0,0,0,1-3.34,5.41,5.41,0,0,0,1.1,1.33C297.9,25.24,298.92,25.47,299.15,26.05Z"/></g></g></svg>